<?xml version="1.0" encoding="UTF-8" standalone="no"?>
<!-- Created with Inkscape (http://www.inkscape.org/) -->

<svg
   xmlns:dc="http://purl.org/dc/elements/1.1/"
   xmlns:cc="http://creativecommons.org/ns#"
   xmlns:rdf="http://www.w3.org/1999/02/22-rdf-syntax-ns#"
   xmlns:svg="http://www.w3.org/2000/svg"
   xmlns="http://www.w3.org/2000/svg"
   xmlns:xlink="http://www.w3.org/1999/xlink"
   xmlns:sodipodi="http://sodipodi.sourceforge.net/DTD/sodipodi-0.dtd"
   xmlns:inkscape="http://www.inkscape.org/namespaces/inkscape"
   width="60.34063mm"
   height="60.340683mm"
   viewBox="0 0 60.34063 60.340683"
   version="1.1"
   id="svg8"
   sodipodi:docname="albot_surprised.svg"
   inkscape:version="0.92.4 (5da689c313, 2019-01-14)"
   inkscape:export-filename="C:\Users\Radu\Desktop\BachelorProject\albot2.png"
   inkscape:export-xdpi="378.66791"
   inkscape:export-ydpi="378.66791">
  <defs
     id="defs2">
    <clipPath
       id="clipPath1169"
       clipPathUnits="userSpaceOnUse">
      <path
         inkscape:connector-curvature="0"
         id="path1167"
         d="m 2019.24,6259.36 c 0,-517.31 -419.36,-936.67 -936.67,-936.67 -517.3,0 -936.656,419.36 -936.656,936.67 0,517.3 419.356,936.67 936.656,936.67 517.31,0 936.67,-419.37 936.67,-936.67" />
    </clipPath>
    <clipPath
       id="clipPath1229"
       clipPathUnits="userSpaceOnUse">
      <path
         inkscape:connector-curvature="0"
         id="path1227"
         d="m 4002.97,6259.36 c 0,-517.31 -419.37,-936.67 -936.67,-936.67 -517.31,0 -936.66,419.36 -936.66,936.67 0,517.3 419.35,936.67 936.66,936.67 517.3,0 936.67,-419.37 936.67,-936.67" />
    </clipPath>
    <clipPath
       id="clipPath1275"
       clipPathUnits="userSpaceOnUse">
      <path
         inkscape:connector-curvature="0"
         id="path1273"
         d="m 4002.97,6259.36 c 0,-517.31 -419.37,-936.67 -936.67,-936.67 -517.31,0 -936.66,419.36 -936.66,936.67 0,517.3 419.35,936.67 936.66,936.67 517.3,0 936.67,-419.37 936.67,-936.67" />
    </clipPath>
    <clipPath
       id="clipPath1281"
       clipPathUnits="userSpaceOnUse">
      <path
         inkscape:connector-curvature="0"
         id="path1279"
         d="m 3066.3,5322.69 c -175.43,0 -339.58,48.22 -479.94,132.14 h 959.88 c -140.36,-83.92 -304.52,-132.14 -479.94,-132.14" />
    </clipPath>
    <clipPath
       id="clipPath1291"
       clipPathUnits="userSpaceOnUse">
      <path
         inkscape:connector-curvature="0"
         id="path1289"
         d="m 4002.97,6259.36 c 0,-517.31 -419.37,-936.67 -936.67,-936.67 -517.31,0 -936.66,419.36 -936.66,936.67 0,517.3 419.35,936.67 936.66,936.67 517.3,0 936.67,-419.37 936.67,-936.67" />
    </clipPath>
    <clipPath
       id="clipPath1329"
       clipPathUnits="userSpaceOnUse">
      <path
         inkscape:connector-curvature="0"
         id="path1327"
         d="m 5970.69,6259.36 c 0,-517.31 -419.36,-936.67 -936.67,-936.67 -517.3,0 -936.66,419.36 -936.66,936.67 0,517.3 419.36,936.67 936.66,936.67 517.31,0 936.67,-419.37 936.67,-936.67" />
    </clipPath>
    <clipPath
       id="clipPath1391"
       clipPathUnits="userSpaceOnUse">
      <path
         inkscape:connector-curvature="0"
         id="path1389"
         d="m 7920,6259.36 c 0,-517.31 -419.37,-936.67 -936.67,-936.67 -517.31,0 -936.66,419.36 -936.66,936.67 0,517.3 419.35,936.67 936.66,936.67 517.3,0 936.67,-419.37 936.67,-936.67" />
    </clipPath>
    <clipPath
       clipPathUnits="userSpaceOnUse"
       id="clipPath5791">
      <use
         x="0"
         y="0"
         xlink:href="#g5787"
         id="use5793"
         width="100%"
         height="100%" />
    </clipPath>
    <clipPath
       clipPathUnits="userSpaceOnUse"
       id="clipPath5974">
      <path
         inkscape:connector-curvature="0"
         id="path5976"
         style="fill:#ffc578;fill-opacity:1;fill-rule:nonzero;stroke:none;stroke-width:0.03221036"
         d="m 134.88028,76.267088 c 0,16.662738 -13.50774,30.170202 -30.17048,30.170202 -16.66241,0 -30.170144,-13.507464 -30.170144,-30.170202 0,-16.662741 13.507734,-30.170475 30.170144,-30.170475 16.66274,0 30.17048,13.507734 30.17048,30.170475"
         clip-path="none" />
    </clipPath>
    <clipPath
       clipPathUnits="userSpaceOnUse"
       id="clipPath5978">
      <path
         inkscape:connector-curvature="0"
         id="path5980"
         style="fill:#ffc578;fill-opacity:1;fill-rule:nonzero;stroke:none;stroke-width:0.03221036"
         d="m 134.88028,76.267088 c 0,16.662738 -13.50774,30.170202 -30.17048,30.170202 -16.66241,0 -30.170144,-13.507464 -30.170144,-30.170202 0,-16.662741 13.507734,-30.170475 30.170144,-30.170475 16.66274,0 30.17048,13.507734 30.17048,30.170475"
         clip-path="none" />
    </clipPath>
  </defs>
  <sodipodi:namedview
     id="base"
     pagecolor="#ffffff"
     bordercolor="#666666"
     borderopacity="1.0"
     inkscape:pageopacity="0.0"
     inkscape:pageshadow="2"
     inkscape:zoom="2.8"
     inkscape:cx="-118.69105"
     inkscape:cy="13.267471"
     inkscape:document-units="mm"
     inkscape:current-layer="g5777"
     showgrid="false"
     inkscape:window-width="3840"
     inkscape:window-height="2115"
     inkscape:window-x="651"
     inkscape:window-y="-13"
     inkscape:window-maximized="1"
     fit-margin-top="0"
     fit-margin-left="0"
     fit-margin-right="0"
     fit-margin-bottom="0" />
  <metadata
     id="metadata5">
    <rdf:RDF>
      <cc:Work
         rdf:about="">
        <dc:format>image/svg+xml</dc:format>
        <dc:type
           rdf:resource="http://purl.org/dc/dcmitype/StillImage" />
        <dc:title />
      </cc:Work>
    </rdf:RDF>
  </metadata>
  <g
     inkscape:groupmode="layer"
     id="layer2"
     inkscape:label="background"
     style="display:inline"
     transform="translate(-5.5958558e-7,-1.5396517)"
     sodipodi:insensitive="true">
    <path
       clip-path="none"
       d="m 60.340629,31.710132 c 0,16.662738 -13.507741,30.170162 -30.17048,30.170162 C 13.507733,61.880294 5.5958558e-7,48.37287 5.5958558e-7,31.710132 5.5958558e-7,15.04739 13.507733,1.5396517 30.170149,1.5396517 c 16.662739,0 30.17048,13.5077383 30.17048,30.1704803"
       style="fill:#ffc578;fill-opacity:1;fill-rule:nonzero;stroke:none;stroke-width:0.03221036"
       id="path5956"
       inkscape:connector-curvature="0" />
  </g>
  <g
     inkscape:label="albot"
     inkscape:groupmode="layer"
     id="layer1"
     transform="translate(-74.762533,-47.684107)"
     style="display:inline">
    <g
       id="g5779"
       clip-path="url(#clipPath5978)"
       transform="translate(0.22287704,1.5875)">
      <g
         inkscape:label="Clip"
         id="g5777">
        <path
           d="m 92.070275,105.81695 c 0.497395,0.29951 0.96762,0.56303 1.415743,0.79657 h 1.645783 V 84.039267 c -2.928935,1.67252 -19.436036,11.917187 -3.061526,21.777683"
           style="fill:#003990;fill-opacity:1;fill-rule:nonzero;stroke:none;stroke-width:0.03574914"
           id="path1333"
           inkscape:connector-curvature="0" />
        <path
           d="m 116.57377,106.61352 c 0.43604,-0.23354 0.89394,-0.49706 1.37831,-0.79657 15.9452,-9.860496 -0.12877,-20.105163 -2.98133,-21.777683 v 22.574253 h 1.60302"
           style="fill:#003990;fill-opacity:1;fill-rule:nonzero;stroke:none;stroke-width:0.03527778"
           id="path1335"
           inkscape:connector-curvature="0" />
        <path
           d="m 122.2034,77.610244 c 0,3.799417 -3.07975,6.87952 -6.87952,6.87952 H 94.226005 c -3.799417,0 -6.879873,-3.080103 -6.879873,-6.87952 v -8.943622 c 0,-3.799417 3.080456,-6.879873 6.879873,-6.879873 h 21.097875 c 3.79977,0 6.87952,3.080456 6.87952,6.879873 v 8.943622"
           style="fill:#97b2d2;fill-opacity:1;fill-rule:nonzero;stroke:none;stroke-width:0.03527778"
           id="path1345"
           inkscape:connector-curvature="0" />
        <path
           d="m 118.18068,106.61352 c 3.48227,-8.692092 -3.17783,-22.123756 -3.17783,-22.123756 H 95.051505 c 0,0 -6.870348,13.431664 -3.775781,22.123756 h 26.904956"
           style="fill:#97b2d2;fill-opacity:1;fill-rule:nonzero;stroke:none;stroke-width:0.03527778"
           id="path1373"
           inkscape:connector-curvature="0" />
        <path
           d="m 118.56203,95.038879 c -1.16946,-5.731934 -3.55918,-10.549115 -3.55918,-10.549115 H 95.051505 c 0,0 -2.464153,4.817181 -3.777192,10.549115 h 27.287717"
           style="fill:#3569ba;fill-opacity:1;fill-rule:nonzero;stroke:none;stroke-width:0.03527778"
           id="path1375"
           inkscape:connector-curvature="0" />
        <path
           d="M 109.79656,88.828578 H 99.9911 c -3.355976,0 -6.086476,2.730501 -6.086476,6.086476 0,3.356324 2.7305,6.086126 6.086476,6.086126 h 9.80546 c 3.35562,0 6.08647,-2.729802 6.08647,-6.086126 0,-3.355975 -2.73085,-6.086476 -6.08647,-6.086476"
           style="fill:#003990;fill-opacity:1;fill-rule:nonzero;stroke:none;stroke-width:0.03527778"
           id="path1377"
           inkscape:connector-curvature="0" />
        <path
           d="m 114.5065,94.915054 c 0,2.601384 -2.10856,4.709934 -4.70994,4.709934 H 99.9911 c -2.601737,0 -4.709937,-2.10855 -4.709937,-4.709934 0,-2.601384 2.1082,-4.710289 4.709937,-4.710289 h 9.80546 c 2.60138,0 4.70994,2.108905 4.70994,4.710289"
           style="fill:#003990;fill-opacity:1;fill-rule:nonzero;stroke:none;stroke-width:0.03527778"
           id="path1379"
           inkscape:connector-curvature="0" />
        <path
           d="m 114.58769,61.840018 v -0.228609 c 0,-3.783754 -3.87613,-6.85122 -8.65871,-6.85122 h -2.30842 c -4.782172,0 -8.658722,3.067466 -8.658722,6.85122 v 0.228609 h 19.625852"
           style="fill:#003990;fill-opacity:1;fill-rule:nonzero;stroke:none;stroke-width:0.0360443"
           id="path1383"
           inkscape:connector-curvature="0" />
        <g
           inkscape:transform-center-y="-4.2384772"
           inkscape:transform-center-x="4.6494363"
           id="g5265"
           transform="rotate(23.246595,105.34902,71.29653)">
          <path
             inkscape:connector-curvature="0"
             id="path1341-3"
             style="fill:#97b2d2;fill-opacity:1;fill-rule:nonzero;stroke:none;stroke-width:0.03527778"
             d="m 89.967948,74.166221 -7.301485,-1.989917 0.663336,-2.433941 7.301485,1.989916 -0.663336,2.433942" />
          <path
             inkscape:connector-curvature="0"
             id="path1343-2"
             style="fill:#013df4;fill-opacity:1;fill-rule:nonzero;stroke:none;stroke-width:0.02625686"
             d="m 83.947669,71.183391 c -0.359428,1.318831 -1.719577,2.096593 -3.038407,1.737165 -1.318831,-0.359428 -2.096272,-1.719761 -1.736843,-3.038592 0.359429,-1.31883 1.719578,-2.096594 3.038408,-1.737166 1.31883,0.359428 2.096271,1.719762 1.736842,3.038593" />
        </g>
        <g
           id="g5269"
           transform="rotate(-32.85367,112.12135,69.693955)">
          <path
             inkscape:connector-curvature="0"
             id="path1341"
             style="fill:#97b2d2;fill-opacity:1;fill-rule:nonzero;stroke:none;stroke-width:0.03527778"
             d="m 119.54893,74.166219 7.30149,-1.989916 -0.66334,-2.433942 -7.30149,1.989917 0.66334,2.433941" />
          <path
             inkscape:connector-curvature="0"
             id="path1343-2-0"
             style="fill:#013df4;fill-opacity:1;fill-rule:nonzero;stroke:none;stroke-width:0.02625686"
             d="m 130.24752,71.183391 c -0.35942,1.318831 -1.71957,2.096593 -3.0384,1.737165 -1.31883,-0.359428 -2.09628,-1.719761 -1.73685,-3.038592 0.35943,-1.31883 1.71958,-2.096594 3.03841,-1.737166 1.31883,0.359428 2.09627,1.719762 1.73684,3.038593" />
        </g>
        <g
           transform="translate(0.0527512,-3.8460591)"
           id="g4420">
          <path
             inkscape:connector-curvature="0"
             id="path1349"
             style="fill:#ffffff;fill-opacity:1;fill-rule:nonzero;stroke:none;stroke-width:0.03527778"
             d="m 99.765675,74.926411 c 0.08114,2.531887 -1.905705,4.649612 -4.438297,4.730045 -2.530828,0.08114 -4.649259,-1.905706 -4.729692,-4.437592 -0.08114,-2.531886 1.905353,-4.649611 4.437592,-4.730397 2.531886,-0.08079 4.649964,1.906058 4.730397,4.437944" />
          <path
             inkscape:connector-curvature="0"
             id="path1351"
             style="fill:#333333;fill-opacity:1;fill-rule:nonzero;stroke:none;stroke-width:0.04580008"
             d="m 99.049956,74.948803 c 0.06824,2.137032 -1.608041,3.924151 -3.745072,3.991937 -2.136117,0.06824 -3.924152,-1.608041 -3.991479,-3.744617 -0.06824,-2.136572 1.6085,-3.923692 3.744614,-3.991934 2.136575,-0.06871 3.923695,1.608499 3.991937,3.744614" />
          <path
             inkscape:connector-curvature="0"
             id="path1353"
             style="fill:#ffffff;fill-opacity:1;fill-rule:nonzero;stroke:none;stroke-width:0.05754463"
             d="m 96.369702,75.00842 c 0.01899,0.619757 -0.467261,1.137658 -1.086441,1.157798 -0.619181,0.01956 -1.137082,-0.466687 -1.157223,-1.086441 -0.01956,-0.619757 0.466112,-1.137082 1.085866,-1.157224 0.619181,-0.01956 1.137658,0.466111 1.157798,1.085867" />
        </g>
        <path
           d="m 104.61265,70.782621 -1.46295,4.062586 h 3.25013 z"
           style="fill:#0164ff;fill-opacity:1;fill-rule:nonzero;stroke:none;stroke-width:0.02499899"
           id="path1361"
           inkscape:connector-curvature="0" />
        <path
           d="m 118.8991,71.080352 c 0.0811,2.531887 -1.90571,4.649612 -4.4383,4.730045 -2.53083,0.08114 -4.64926,-1.905706 -4.72969,-4.437592 -0.0811,-2.531886 1.90535,-4.649611 4.43759,-4.730397 2.53188,-0.08079 4.64996,1.906058 4.73039,4.437944"
           style="fill:#ffffff;fill-opacity:1;fill-rule:nonzero;stroke:none;stroke-width:0.03527778"
           id="path1349-3"
           inkscape:connector-curvature="0" />
        <path
           d="m 118.45051,71.094206 c 0.073,2.284608 -1.71909,4.195139 -4.0037,4.267606 -2.28363,0.07295 -4.19514,-1.719088 -4.26711,-4.003208 -0.0729,-2.284116 1.71957,-4.194649 4.0032,-4.267603 2.28412,-0.07346 4.19465,1.719576 4.26761,4.003205"
           style="fill:#333333;fill-opacity:1;fill-rule:nonzero;stroke:none;stroke-width:0.04896287"
           id="path1351-0"
           inkscape:connector-curvature="0" />
        <path
           d="m 115.45303,71.163967 c 0.0181,0.592086 -0.44639,1.086864 -1.03793,1.106105 -0.59153,0.01869 -1.08631,-0.445851 -1.10555,-1.037934 -0.0187,-0.592086 0.4453,-1.086314 1.03738,-1.105557 0.59154,-0.01868 1.08686,0.445301 1.1061,1.037386"
           style="fill:#ffffff;fill-opacity:1;fill-rule:nonzero;stroke:none;stroke-width:0.05497538"
           id="path1353-4"
           inkscape:connector-curvature="0" />
        <path
           d="m 106.86756,79.986322 c 0.0362,1.097604 -0.85401,2.015488 -1.98894,2.050303 -1.13446,0.03505 -2.08405,-0.825908 -2.11981,-1.923278 -0.0362,-1.097367 0.85425,-2.015252 1.9887,-2.050302 1.1347,-0.0353 2.08381,0.826143 2.12005,1.923277"
           style="display:inline;fill:#333333;fill-opacity:1;fill-rule:nonzero;stroke:none;stroke-width:0.02392019"
           id="path1351-0-9"
           inkscape:connector-curvature="0" />
        <path
           style="display:inline;fill:#ffffff;stroke-width:0.08132379"
           d="m 98.564169,96.522863 -0.05422,-0.05422 v -0.230414 -0.230417 h -0.243971 -0.243971 v -1.382503 -1.382505 h 0.284634 0.284633 v 1.341842 1.341842 h 0.528604 0.528603 v -1.341842 -1.341842 h 0.284631 0.284628 v 1.382505 1.382503 h -0.284628 -0.284631 v 0.284633 0.284633 h -0.515048 -0.515051 z m 4.418601,-1.612922 v -1.667137 h 1.09788 1.09786 v 1.667137 1.667137 h -1.09786 -1.09788 z m 1.62649,-0.04066 v -1.05721 h -0.52861 -0.52861 v 1.05721 1.057209 h 0.52861 0.52861 z m 1.11141,1.653582 -0.0543,-0.05422 v -1.612921 -1.61292 h 1.13854 1.13852 v 1.667136 1.667137 h -1.08431 -1.08432 z m 1.65359,-1.653582 v -1.05721 h -0.5286 -0.5286 v 1.05721 1.057209 h 0.5286 0.5286 z m 2.74757,0.879166 -0.0232,-0.838507 -0.83357,-0.02318 -0.83356,-0.02318 v -0.810393 -0.810392 h 0.32529 0.32529 v 0.528604 0.528605 h 0.52861 0.52861 v -0.528605 -0.528604 h 0.28631 0.28632 l -0.0221,1.646807 -0.0221,1.646805 -0.26142,0.02527 -0.2614,0.02528 z m 1.12887,0.774416 -0.0543,-0.05422 v -1.612921 -1.61292 h 0.28463 0.28463 v 1.667136 1.667137 h -0.23041 -0.23042 z m -9.97574,-1.3638 v -0.279482 l -0.26429,-0.02549 -0.26432,-0.02548 v -0.243969 -0.24397 l 0.25951,-0.02512 0.25952,-0.02514 0.0251,-0.259505 0.0252,-0.259507 h 0.28462 0.28463 l 0.0255,0.264301 0.0255,0.264303 h 0.23882 0.23882 v 0.284633 0.284633 h -0.24397 -0.24398 v 0.284634 0.284632 h -0.32529 -0.32529 z"
           id="path1209"
           inkscape:connector-curvature="0" />
      </g>
    </g>
    <g
       id="g5789"
       clip-path="url(#clipPath5974)"
       transform="translate(0.22287704,1.5875)">
      <g
         inkscape:label="Clip"
         id="g5787" />
    </g>
  </g>
</svg>
